<svg width="50" height="50" viewBox="0 0 50 50" fill="none" xmlns="http://www.w3.org/2000/svg">
<circle cx="25" cy="25" r="25" fill="#FFA4C0"/>
<path d="M36 24.9919C35.992 24.1144 35.6438 23.2754 35.0307 22.6568L27.9829 15.485C27.675 15.1744 27.2587 15 26.8246 15C26.3906 15 25.9742 15.1744 25.6664 15.485C25.5124 15.6401 25.3902 15.8245 25.3068 16.0278C25.2234 16.231 25.1805 16.449 25.1805 16.6692C25.1805 16.8894 25.2234 17.1074 25.3068 17.3106C25.3902 17.5139 25.5124 17.6983 25.6664 17.8534L31.0714 23.324H14.6429C14.2071 23.324 13.7893 23.4997 13.4812 23.8125C13.1731 24.1253 13 24.5495 13 24.9919C13 25.4342 13.1731 25.8584 13.4812 26.1712C13.7893 26.484 14.2071 26.6597 14.6429 26.6597H31.0714L25.6664 32.147C25.3571 32.4589 25.1824 32.8827 25.1809 33.3253C25.1793 33.7679 25.351 34.193 25.6582 34.507C25.9654 34.8211 26.3829 34.9984 26.8188 35C27.2548 35.0016 27.6735 34.8272 27.9829 34.5154L35.0307 27.3435C35.6478 26.7208 35.9963 25.8751 36 24.9919Z" fill="white"/>
</svg>
