<svg width="38" height="38" viewBox="0 0 38 38" fill="none" xmlns="http://www.w3.org/2000/svg">
<circle cx="18.75" cy="18.75" r="18.75" fill="#D2D5DD"/>
<path d="M27 18.7439C26.994 18.0858 26.7328 17.4566 26.273 16.9926L20.9871 11.6138C20.7563 11.3808 20.444 11.25 20.1185 11.25C19.793 11.25 19.4807 11.3808 19.2498 11.6138C19.1343 11.73 19.0427 11.8684 18.9801 12.0208C18.9176 12.1733 18.8854 12.3368 18.8854 12.5019C18.8854 12.667 18.9176 12.8305 18.9801 12.983C19.0427 13.1354 19.1343 13.2737 19.2498 13.39L23.3036 17.493H10.9821C10.6554 17.493 10.342 17.6248 10.1109 17.8594C9.87981 18.094 9.75 18.4121 9.75 18.7439C9.75 19.0756 9.87981 19.3938 10.1109 19.6284C10.342 19.863 10.6554 19.9948 10.9821 19.9948H23.3036L19.2498 24.1103C19.0178 24.3441 18.8868 24.662 18.8857 24.994C18.8845 25.3259 19.0133 25.6447 19.2437 25.8803C19.474 26.1158 19.7872 26.2488 20.1141 26.25C20.4411 26.2512 20.7551 26.1204 20.9871 25.8865L26.273 20.5077C26.7358 20.0406 26.9972 19.4063 27 18.7439Z" fill="white"/>
</svg>
