<svg width="29" height="29" viewBox="0 0 29 29" fill="none" xmlns="http://www.w3.org/2000/svg">
<circle cx="14.75" cy="14.75" r="14.0625" fill="white"/>
<path d="M20.9375 14.7454C20.933 14.2518 20.7371 13.7799 20.3923 13.432L16.4279 9.39781C16.2547 9.22308 16.0205 9.125 15.7764 9.125C15.5322 9.125 15.298 9.22308 15.1249 9.39781C15.0383 9.48503 14.9695 9.58879 14.9226 9.70312C14.8757 9.81744 14.8515 9.94007 14.8515 10.0639C14.8515 10.1878 14.8757 10.3104 14.9226 10.4247C14.9695 10.539 15.0383 10.6428 15.1249 10.73L18.1652 13.8072H8.92411C8.67902 13.8072 8.44397 13.9061 8.27066 14.082C8.09736 14.258 8 14.4966 8 14.7454C8 14.9942 8.09736 15.2329 8.27066 15.4088C8.44397 15.5847 8.67902 15.6836 8.92411 15.6836H18.1652L15.1249 18.7702C14.9509 18.9456 14.8526 19.184 14.8517 19.433C14.8509 19.6819 14.9475 19.921 15.1202 20.0977C15.293 20.2744 15.5279 20.3741 15.7731 20.375C16.0183 20.3759 16.2538 20.2778 16.4279 20.1024L20.3923 16.0682C20.7394 15.718 20.9354 15.2423 20.9375 14.7454Z" fill="url(#paint0_linear_39_101)"/>
<defs>
<linearGradient id="paint0_linear_39_101" x1="18.894" y1="20.375" x2="7.96013" y2="11.7732" gradientUnits="userSpaceOnUse">
<stop stop-color="#FFD5B5"/>
<stop offset="1" stop-color="#F6DDA8"/>
</linearGradient>
</defs>
</svg>
