<svg width="29" height="29" viewBox="0 0 29 29" fill="none" xmlns="http://www.w3.org/2000/svg">
<circle cx="14.0625" cy="14.75" r="14.0625" fill="white"/>
<path d="M20.25 14.7454C20.2455 14.2518 20.0496 13.7799 19.7048 13.432L15.7404 9.39781C15.5672 9.22308 15.333 9.125 15.0889 9.125C14.8447 9.125 14.6105 9.22308 14.4374 9.39781C14.3508 9.48503 14.282 9.58879 14.2351 9.70312C14.1882 9.81744 14.164 9.94007 14.164 10.0639C14.164 10.1878 14.1882 10.3104 14.2351 10.4247C14.282 10.539 14.3508 10.6428 14.4374 10.73L17.4777 13.8072H8.23661C7.99152 13.8072 7.75647 13.9061 7.58316 14.082C7.40986 14.258 7.3125 14.4966 7.3125 14.7454C7.3125 14.9942 7.40986 15.2329 7.58316 15.4088C7.75647 15.5847 7.99152 15.6836 8.23661 15.6836H17.4777L14.4374 18.7702C14.2634 18.9456 14.1651 19.184 14.1642 19.433C14.1634 19.6819 14.26 19.921 14.4327 20.0977C14.6055 20.2744 14.8404 20.3741 15.0856 20.375C15.3308 20.3759 15.5663 20.2778 15.7404 20.1024L19.7048 16.0682C20.0519 15.718 20.2479 15.2423 20.25 14.7454Z" fill="url(#paint0_linear_39_104)"/>
<defs>
<linearGradient id="paint0_linear_39_104" x1="18.2065" y1="20.375" x2="7.27263" y2="11.7732" gradientUnits="userSpaceOnUse">
<stop stop-color="#D2EEFF"/>
<stop offset="1" stop-color="#CEC0EB"/>
</linearGradient>
</defs>
</svg>
